<svg width="1440" height="191" viewBox="0 0 1440 191" fill="none" xmlns="http://www.w3.org/2000/svg">
<path d="M1552.62 54.6787L1500.25 71.8435C1447.88 89.0083 1343.14 123.338 1238.48 151.754C1133.82 179.724 1029.22 202.896 925.194 183.336C821.154 164.444 717.677 102.82 613.638 83.929C509.607 64.3683 405.013 87.5405 300.826 79.8067C196.634 72.5192 92.8335 35.4413 40.9335 16.9024L-10.9665 -1.6365L41.1688 -0.949453C93.304 -0.262405 197.575 1.11169 301.845 2.48579C406.116 3.85988 510.386 5.23398 614.657 6.60807C718.927 7.98217 823.198 9.35626 927.468 10.7304C1031.74 12.1045 1136.01 13.4785 1240.28 14.8526C1344.55 16.2267 1448.82 17.6008 1500.96 18.2879L1553.09 18.9749L1552.62 54.6787Z" fill="#B560FF" fill-opacity="0.7"/>
</svg>
