<svg width="1440" height="256" viewBox="0 0 1440 256" fill="none" xmlns="http://www.w3.org/2000/svg">
<path d="M0 192L21.8 176C43.6 160 87 128 131 122.7C174.5 117 218 139 262 160C305.5 181 349 203 393 213.3C436.4 224 480 224 524 181.3C567.3 139 611 53 655 53.3C698.2 53 742 139 785 176C829.1 213 873 203 916 176C960 149 1004 107 1047 106.7C1090.9 107 1135 149 1178 149.3C1221.8 149 1265 107 1309 74.7C1352.7 43 1396 21 1418 10.7L1440 0V256H1418.2C1396.4 256 1353 256 1309 256C1265.5 256 1222 256 1178 256C1134.5 256 1091 256 1047 256C1003.6 256 960 256 916 256C872.7 256 829 256 785 256C741.8 256 698 256 655 256C610.9 256 567 256 524 256C480 256 436 256 393 256C349.1 256 305 256 262 256C218.2 256 175 256 131 256C87.3 256 44 256 22 256H0V192Z" fill="#BB7AF3" fill-opacity="0.78"/>
</svg>
