<svg width="24" height="24" viewBox="0 0 24 24" fill="none" xmlns="http://www.w3.org/2000/svg">
<path d="M9 3C8.73478 3 8.48043 3.07902 8.29289 3.21967C8.10536 3.36032 8 3.55109 8 3.75C8 3.94891 8.10536 4.13968 8.29289 4.28033C8.48043 4.42098 8.73478 4.5 9 4.5H15C15.2652 4.5 15.5196 4.42098 15.7071 4.28033C15.8946 4.13968 16 3.94891 16 3.75C16 3.55109 15.8946 3.36032 15.7071 3.21967C15.5196 3.07902 15.2652 3 15 3H9ZM18 12C18 13.1935 17.3679 14.3381 16.2426 15.182C15.1174 16.0259 13.5913 16.5 12 16.5C10.4087 16.5 8.88258 16.0259 7.75736 15.182C6.63214 14.3381 6 13.1935 6 12C6 10.8065 6.63214 9.66193 7.75736 8.81802C8.88258 7.97411 10.4087 7.5 12 7.5C13.5913 7.5 15.1174 7.97411 16.2426 8.81802C17.3679 9.66193 18 10.8065 18 12Z" fill="white"/>
<path d="M5 0C3.67392 0 2.40215 0.395088 1.46447 1.09835C0.526784 1.80161 0 2.75544 0 3.75V21C0 21.7956 0.421427 22.5587 1.17157 23.1213C1.92172 23.6839 2.93913 24 4 24H20C21.0609 24 22.0783 23.6839 22.8284 23.1213C23.5786 22.5587 24 21.7956 24 21V3.75C24 2.75544 23.4732 1.80161 22.5355 1.09835C21.5979 0.395088 20.3261 0 19 0L5 0ZM2 3.75C2 3.15326 2.31607 2.58097 2.87868 2.15901C3.44129 1.73705 4.20435 1.5 5 1.5H19C19.7956 1.5 20.5587 1.73705 21.1213 2.15901C21.6839 2.58097 22 3.15326 22 3.75V19.9425C21.5202 19.6547 20.9998 19.4072 20.448 19.2045C18.784 18.5805 16.126 18 12 18C7.874 18 5.216 18.5805 3.552 19.2045C3.00024 19.4072 2.47979 19.6547 2 19.9425V3.75Z" fill="white"/>
</svg>
